HIERARCHY
ROOT Hips
{
	OFFSET -3.958830 18.904000 13.208200
	CHANNELS 6 Xposition Yposition Zposition Zrotation Yrotation Xrotation 
	JOINT LHipJoint
	{
		OFFSET 0.000000 0.000000 0.000000
		CHANNELS 3 Zrotation Yrotation Xrotation
		JOINT LeftUpLeg
		{
			OFFSET 1.800000 -1.400000 0.085000
			CHANNELS 3 Zrotation Yrotation Xrotation
			JOINT LeftLeg
			{
				OFFSET 2.215000 -6.000000 0.000000
				CHANNELS 3 Zrotation Yrotation Xrotation
				JOINT LeftFoot
				{
					OFFSET 2.500000 -6.900000 0.000000
					CHANNELS 3 Zrotation Yrotation Xrotation
					JOINT LeftToeBase
					{
						OFFSET 0.200000 -0.500000 1.950000
						CHANNELS 3 Zrotation Yrotation Xrotation
						End Site
						{
							OFFSET 0.000000 0.000000 0.000000
						}
					}
				}
			}
		}
	}
	JOINT RHipJoint
	{
		OFFSET 0.000000 0.000000 0.000000
		CHANNELS 3 Zrotation Yrotation Xrotation
		JOINT RightUpLeg
		{
			OFFSET -1.800000 -1.400000 0.085000
			CHANNELS 3 Zrotation Yrotation Xrotation
			JOINT RightLeg
			{
				OFFSET -2.215000 -6.000000 0.000000
				CHANNELS 3 Zrotation Yrotation Xrotation
				JOINT RightFoot
				{
					OFFSET -2.500000 -6.900000 0.000000
					CHANNELS 3 Zrotation Yrotation Xrotation
					JOINT RightToeBase
					{
						OFFSET -0.200000 -0.500000 1.950000
						CHANNELS 3 Zrotation Yrotation Xrotation
						End Site
						{
							OFFSET 0.000000 0.000000 0.000000
						}
					}
				}
			}
		}
	}
	JOINT LowerBack
	{
		OFFSET 0.000000 0.000000 0.000000
		CHANNELS 3 Zrotation Yrotation Xrotation
		JOINT Spine
		{
			OFFSET -0.087000 1.940000 -0.288900
			CHANNELS 3 Zrotation Yrotation Xrotation
			JOINT Spine1
			{
				OFFSET 0.000000 1.950000 0.060000
				CHANNELS 3 Zrotation Yrotation Xrotation
				JOINT Neck
				{
					OFFSET 0.000000 0.000000 0.000000
					CHANNELS 3 Zrotation Yrotation Xrotation
					JOINT Neck1
					{
						OFFSET 0.000000 1.600000 0.340000
						CHANNELS 3 Zrotation Yrotation Xrotation
						JOINT Head
						{
							OFFSET 0.000000 1.667000 -0.240000
							CHANNELS 3 Zrotation Yrotation Xrotation
							End Site
							{
								OFFSET 0.000000 0.000000 0.000000
							}
						}
					}
				}
				JOINT LeftShoulder
				{
					OFFSET 0.000000 0.000000 0.000000
					CHANNELS 3 Zrotation Yrotation Xrotation
					JOINT LeftArm
					{
						OFFSET 2.700000 1.550000 -0.730000
						CHANNELS 3 Zrotation Yrotation Xrotation
						JOINT LeftForeArm
						{
							OFFSET 5.450000 0.000000 0.000000
							CHANNELS 3 Zrotation Yrotation Xrotation
							JOINT LeftHand
							{
								OFFSET 3.450000 0.000000 0.000000
								CHANNELS 3 Zrotation Yrotation Xrotation
								JOINT LeftHandIndex1
								{
									OFFSET 0.750000 0.000000 0.000000
									CHANNELS 3 Zrotation Yrotation Xrotation
									End Site
									{
										OFFSET 0.000000 0.000000 0.000000
									}
								}
							}
						}
					}
				}
				JOINT RightShoulder
				{
					OFFSET 0.000000 0.000000 0.000000
					CHANNELS 3 Zrotation Yrotation Xrotation
					JOINT RightArm
					{
						OFFSET -2.700000 1.550000 -0.730000
						CHANNELS 3 Zrotation Yrotation Xrotation
						JOINT RightForeArm
						{
							OFFSET -5.450000 0.000000 0.000000
							CHANNELS 3 Zrotation Yrotation Xrotation
							JOINT RightHand
							{
								OFFSET -3.450000 0.000000 0.000000
								CHANNELS 3 Zrotation Yrotation Xrotation
								JOINT RightHandIndex1
								{
									OFFSET -0.750000 0.000000 0.000000
									CHANNELS 3 Zrotation Yrotation Xrotation
									End Site
									{
										OFFSET 0.000000 0.000000 0.000000
									}
								}
							}
						}
					}
				}
			}
		}
	}
}
MOTION
Frames: 6
Frame Time: 0.016667
0.165470 17.907220 -3.229150 -8.067756 31.905250 -3.289166 -15.595585 13.071525 2.934067 4.163258 -1.578842 -11.834760 -11.035872 6.005093 9.119132 -0.766612 4.627006 3.380664 0.121710 -0.439090 -0.079120 17.847324 -10.465727 2.862228 -11.521771 1.645919 -23.121297 4.159068 -2.954368 2.967724 0.227946 -2.600451 3.932686 -0.063870 0.813020 0.053180 -2.851431 -1.722834 -7.288010 -0.662013 1.554041 5.802782 7.417618 0.799189 9.284580 0.668453 4.366047 -9.788587 4.160717 -7.956833 44.128643 1.354600 -10.945610 4.082930 -15.706610 -12.920941 4.896175 -46.564834 -12.746208 1.205528 -35.571932 -31.060408 7.323425 -3.964318 2.865069 0.563460 0.424120 -0.520790 0.348750 15.978038 10.894880 5.539704 35.052511 7.346933 -5.466254 30.324052 44.416284 9.095144 1.695166 -1.451823 -0.587660 0.554370 0.232340 -0.219780 
0.168880 17.893380 -3.235280 -8.287905 32.615309 -3.456263 -15.591268 13.108693 2.938787 3.966860 -1.611933 -12.085919 -10.713743 5.969214 9.419296 -0.789190 4.613920 3.391009 0.114210 -0.449660 -0.106330 17.846595 -10.477049 2.861996 -10.961759 1.682267 -22.738869 4.200676 -2.965657 3.030960 0.231741 -2.602211 3.942579 -0.064020 0.847120 0.058560 -2.887599 -1.781502 -7.308717 -0.193296 1.254376 6.070997 7.367489 0.517708 9.105366 0.482327 3.887787 -9.612709 3.270035 -7.377824 44.024016 2.117110 -11.177910 3.729830 -15.864254 -13.001659 4.845850 -46.661899 -13.126226 1.520947 -35.546111 -30.796646 7.238609 -3.981295 2.858253 0.567960 0.433880 -0.534240 0.358130 16.486124 11.288128 5.289872 34.990348 8.622752 -5.010857 28.494510 42.918294 8.275342 1.686703 -1.413715 -0.597740 0.573520 0.251340 -0.209900 
0.182280 17.863550 -3.234090 -8.538277 34.241894 -3.800397 -15.614531 13.169484 2.969304 3.652239 -1.570856 -11.951612 -10.377374 5.828492 9.155253 -0.863105 4.591070 3.379119 0.114840 -0.453120 -0.110020 17.814998 -10.491894 2.836247 -10.394314 1.658777 -21.718221 4.873872 -3.158484 3.606671 0.219194 -2.646106 3.914756 -0.047300 0.843370 0.057820 -2.845721 -1.897674 -7.326360 -0.117756 0.988677 6.448944 8.100822 0.198901 8.835059 0.282276 3.499659 -9.486385 2.513504 -7.269900 44.004385 2.612870 -11.515240 1.871020 -16.204756 -13.547391 4.823060 -47.388604 -14.179621 2.288543 -35.333388 -30.277405 7.015572 -3.996405 2.823092 0.610590 0.420120 -0.530120 0.334270 17.300310 12.202813 5.033561 34.745760 10.649726 -4.232008 24.673359 39.693872 6.635180 1.668833 -1.314191 -0.621020 0.599710 0.290810 -0.229160 
0.176120 17.834380 -3.224530 -7.899376 36.203126 -3.583773 -15.675913 13.247911 3.029979 2.912620 -1.628863 -12.077022 -10.181237 5.783220 9.305266 -0.988155 4.647282 3.338160 0.071990 -0.536830 -0.110380 17.744353 -10.539878 2.756398 -9.988258 1.610017 -21.278170 5.299062 -3.525810 5.572593 0.237958 -2.683813 3.869994 -0.052510 0.858850 0.067770 -2.655790 -2.028405 -7.269341 -1.811397 1.232825 6.644576 9.659049 0.301696 8.720892 -0.013330 3.656999 -9.607195 2.821744 -7.867923 43.917814 2.349900 -11.857810 0.459860 -15.775501 -14.414057 4.750544 -48.696255 -16.158366 3.574223 -34.490477 -29.555620 6.594540 -4.055917 2.748465 0.679650 0.426680 -0.545110 0.278590 17.649854 13.247475 5.141109 35.826770 12.346758 -3.859963 19.998034 37.533720 4.971669 1.619976 -1.198401 -0.686310 0.634570 0.374620 -0.278150 
0.173220 17.812060 -3.221640 -7.069860 38.596148 -3.042313 -15.713981 13.321621 3.097035 1.999830 -1.761585 -12.553770 -9.744224 5.736298 9.805212 -1.084495 4.653860 3.322594 -0.003500 -0.649710 -0.152990 17.687046 -10.643174 2.677652 -9.658736 1.629664 -21.332883 5.816482 -4.072418 8.857823 0.280504 -2.786747 3.804417 -0.078920 0.894630 0.061160 -2.551219 -2.070232 -7.229496 -3.072879 1.516774 6.947879 10.911216 0.466877 8.512804 -0.484608 3.657165 -9.956730 2.865485 -8.477319 43.388424 2.633270 -12.798800 0.413330 -15.606715 -15.774628 4.881730 -50.484512 -17.990770 4.559707 -32.580641 -29.082778 5.901542 -4.107793 2.697431 0.710930 0.439280 -0.591130 0.228260 18.495677 14.826402 5.559223 36.573230 13.382363 -3.718673 15.744947 35.343431 3.517209 1.590005 -1.118486 -0.748810 0.655340 0.462650 -0.305300 
0.163490 17.794640 -3.225750 -6.408905 41.369110 -2.518909 -15.729171 13.354698 3.148843 1.649438 -2.098105 -13.849070 -9.727858 5.980118 11.556497 -1.143362 4.724391 3.292365 -0.010700 -0.671910 -0.131890 17.651833 -10.750403 2.622309 -9.182836 1.748199 -21.470470 6.427643 -4.739889 12.663563 0.266682 -2.972850 3.723905 -0.071300 0.910650 0.052450 -2.527318 -2.028255 -7.197986 -3.703373 1.718930 7.550094 11.303387 0.619025 8.405659 -0.623358 4.218739 -10.174084 4.042587 -9.588692 42.327308 2.634300 -13.353850 -0.768760 -15.932582 -17.232195 4.911016 -51.570217 -19.895887 5.367649 -30.487641 -28.763842 5.271710 -4.132714 2.624132 0.740730 0.440930 -0.593970 0.214430 19.087212 16.030901 5.821520 37.991242 14.551364 -3.409414 12.475306 33.362899 2.385073 1.568901 -1.056981 -0.786100 0.701900 0.482630 -0.323510 
